solid OpenSCAD_Model
  facet normal 0.831458 0.555587 0
    outer loop
      vertex 50.4194 22.3134 1
      vertex 49.3355 23.9355 0
      vertex 49.3355 23.9355 1
    endloop
  endfacet
  facet normal 0.831458 0.555587 0
    outer loop
      vertex 49.3355 23.9355 0
      vertex 50.4194 22.3134 1
      vertex 50.4194 22.3134 0
    endloop
  endfacet
  facet normal -0.195097 -0.980784 0
    outer loop
      vertex 3.08659 0.380615 0
      vertex 5 0 1
      vertex 3.08659 0.380615 1
    endloop
  endfacet
  facet normal -0.195097 -0.980784 -0
    outer loop
      vertex 5 0 1
      vertex 3.08659 0.380615 0
      vertex 5 0 0
    endloop
  endfacet
  facet normal 0.980785 0.195091 0
    outer loop
      vertex 50.8 20.4 1
      vertex 50.4194 22.3134 0
      vertex 50.4194 22.3134 1
    endloop
  endfacet
  facet normal 0.980785 0.195091 0
    outer loop
      vertex 50.4194 22.3134 0
      vertex 50.8 20.4 1
      vertex 50.8 20.4 0
    endloop
  endfacet
  facet normal 0.195098 -0.980784 0
    outer loop
      vertex 45.8 0 0
      vertex 47.7134 0.380615 1
      vertex 45.8 0 1
    endloop
  endfacet
  facet normal 0.195098 -0.980784 0
    outer loop
      vertex 47.7134 0.380615 1
      vertex 45.8 0 0
      vertex 47.7134 0.380615 0
    endloop
  endfacet
  facet normal -1 0 0
    outer loop
      vertex 0 5 0
      vertex 0 20.4 1
      vertex 0 20.4 0
    endloop
  endfacet
  facet normal -1 -0 0
    outer loop
      vertex 0 20.4 1
      vertex 0 5 0
      vertex 0 5 1
    endloop
  endfacet
  facet normal 0 -1 0
    outer loop
      vertex 5 0 0
      vertex 17.9 0 1
      vertex 5 0 1
    endloop
  endfacet
  facet normal 0 -1 -0
    outer loop
      vertex 17.9 0 1
      vertex 5 0 0
      vertex 17.9 0 0
    endloop
  endfacet
  facet normal 0 -1 0
    outer loop
      vertex 32.9 0 0
      vertex 45.8 0 1
      vertex 32.9 0 1
    endloop
  endfacet
  facet normal 0 -1 -0
    outer loop
      vertex 45.8 0 1
      vertex 32.9 0 0
      vertex 45.8 0 0
    endloop
  endfacet
  facet normal 0.555575 -0.831467 0
    outer loop
      vertex 47.7134 0.380615 0
      vertex 49.3355 1.46448 1
      vertex 47.7134 0.380615 1
    endloop
  endfacet
  facet normal 0.555575 -0.831467 0
    outer loop
      vertex 49.3355 1.46448 1
      vertex 47.7134 0.380615 0
      vertex 49.3355 1.46448 0
    endloop
  endfacet
  facet normal 0 0 -1
    outer loop
      vertex 45.8 0 0
      vertex 50.8 5 0
      vertex 50.4194 3.08659 0
    endloop
  endfacet
  facet normal 0 0 -1
    outer loop
      vertex 32.9 0 0
      vertex 50.8 5 0
      vertex 45.8 0 0
    endloop
  endfacet
  facet normal 0 0 -1
    outer loop
      vertex 45.8 0 0
      vertex 50.4194 3.08659 0
      vertex 49.3355 1.46448 0
    endloop
  endfacet
  facet normal -0 0 -1
    outer loop
      vertex 50.8 5 0
      vertex 32.9 0 0
      vertex 50.8 20.4 0
    endloop
  endfacet
  facet normal 0 0 -1
    outer loop
      vertex 45.8 0 0
      vertex 49.3355 1.46448 0
      vertex 47.7134 0.380615 0
    endloop
  endfacet
  facet normal 0 0 -1
    outer loop
      vertex 50.8 20.4 0
      vertex 45.8 25.4 0
      vertex 50.4194 22.3134 0
    endloop
  endfacet
  facet normal 0 0 -1
    outer loop
      vertex 50.4194 22.3134 0
      vertex 45.8 25.4 0
      vertex 49.3355 23.9355 0
    endloop
  endfacet
  facet normal 0 0 -1
    outer loop
      vertex 49.3355 23.9355 0
      vertex 45.8 25.4 0
      vertex 47.7134 25.0194 0
    endloop
  endfacet
  facet normal -0 0 -1
    outer loop
      vertex 50.8 20.4 0
      vertex 32.9 0 0
      vertex 45.8 25.4 0
    endloop
  endfacet
  facet normal 0 0 -1
    outer loop
      vertex 17.9 0 0
      vertex 32.9 0 0
      vertex 25.4 -200 0
    endloop
  endfacet
  facet normal 0 0 -1
    outer loop
      vertex 17.9 0 0
      vertex 45.8 25.4 0
      vertex 32.9 0 0
    endloop
  endfacet
  facet normal 0 0 -1
    outer loop
      vertex 0 5 0
      vertex 17.9 0 0
      vertex 5 0 0
    endloop
  endfacet
  facet normal 0 0 -1
    outer loop
      vertex 17.9 0 0
      vertex 5 25.4 0
      vertex 45.8 25.4 0
    endloop
  endfacet
  facet normal 0 0 -1
    outer loop
      vertex 0 5 0
      vertex 5 0 0
      vertex 3.08659 0.380615 0
    endloop
  endfacet
  facet normal 0 0 -1
    outer loop
      vertex 0 20.4 0
      vertex 17.9 0 0
      vertex 0 5 0
    endloop
  endfacet
  facet normal 0 0 -1
    outer loop
      vertex 0 5 0
      vertex 3.08659 0.380615 0
      vertex 1.46448 1.46448 0
    endloop
  endfacet
  facet normal 0 0 -1
    outer loop
      vertex 17.9 0 0
      vertex 0 20.4 0
      vertex 5 25.4 0
    endloop
  endfacet
  facet normal 0 0 -1
    outer loop
      vertex 0 5 0
      vertex 1.46448 1.46448 0
      vertex 0.380615 3.08659 0
    endloop
  endfacet
  facet normal 0 0 -1
    outer loop
      vertex 5 25.4 0
      vertex 0 20.4 0
      vertex 3.08659 25.0194 0
    endloop
  endfacet
  facet normal 0 0 -1
    outer loop
      vertex 3.08659 25.0194 0
      vertex 0 20.4 0
      vertex 1.46448 23.9355 0
    endloop
  endfacet
  facet normal 0 0 -1
    outer loop
      vertex 1.46448 23.9355 0
      vertex 0 20.4 0
      vertex 0.380615 22.3134 0
    endloop
  endfacet
  facet normal -0.555585 0.83146 0
    outer loop
      vertex 3.08659 25.0194 0
      vertex 1.46448 23.9355 1
      vertex 3.08659 25.0194 1
    endloop
  endfacet
  facet normal -0.555585 0.83146 0
    outer loop
      vertex 1.46448 23.9355 1
      vertex 3.08659 25.0194 0
      vertex 1.46448 23.9355 0
    endloop
  endfacet
  facet normal -0.980784 0.195098 0
    outer loop
      vertex 0 20.4 0
      vertex 0.380615 22.3134 1
      vertex 0.380615 22.3134 0
    endloop
  endfacet
  facet normal -0.980784 0.195098 0
    outer loop
      vertex 0.380615 22.3134 1
      vertex 0 20.4 0
      vertex 0 20.4 1
    endloop
  endfacet
  facet normal -0.19509 0.980785 0
    outer loop
      vertex 5 25.4 0
      vertex 3.08659 25.0194 1
      vertex 5 25.4 1
    endloop
  endfacet
  facet normal -0.19509 0.980785 0
    outer loop
      vertex 3.08659 25.0194 1
      vertex 5 25.4 0
      vertex 3.08659 25.0194 0
    endloop
  endfacet
  facet normal -0.831468 -0.555572 0
    outer loop
      vertex 1.46448 1.46448 0
      vertex 0.380615 3.08659 1
      vertex 0.380615 3.08659 0
    endloop
  endfacet
  facet normal -0.831468 -0.555572 0
    outer loop
      vertex 0.380615 3.08659 1
      vertex 1.46448 1.46448 0
      vertex 1.46448 1.46448 1
    endloop
  endfacet
  facet normal 1 -0 0
    outer loop
      vertex 50.8 5 1
      vertex 50.8 20.4 0
      vertex 50.8 20.4 1
    endloop
  endfacet
  facet normal 1 0 0
    outer loop
      vertex 50.8 20.4 0
      vertex 50.8 5 1
      vertex 50.8 5 0
    endloop
  endfacet
  facet normal 0.83146 -0.555585 0
    outer loop
      vertex 49.3355 1.46448 1
      vertex 50.4194 3.08659 0
      vertex 50.4194 3.08659 1
    endloop
  endfacet
  facet normal 0.83146 -0.555585 0
    outer loop
      vertex 50.4194 3.08659 0
      vertex 49.3355 1.46448 1
      vertex 49.3355 1.46448 0
    endloop
  endfacet
  facet normal -0.555572 -0.831468 0
    outer loop
      vertex 1.46448 1.46448 0
      vertex 3.08659 0.380615 1
      vertex 1.46448 1.46448 1
    endloop
  endfacet
  facet normal -0.555572 -0.831468 -0
    outer loop
      vertex 3.08659 0.380615 1
      vertex 1.46448 1.46448 0
      vertex 3.08659 0.380615 0
    endloop
  endfacet
  facet normal 0 1 -0
    outer loop
      vertex 45.8 25.4 0
      vertex 5 25.4 1
      vertex 45.8 25.4 1
    endloop
  endfacet
  facet normal 0 1 0
    outer loop
      vertex 5 25.4 1
      vertex 45.8 25.4 0
      vertex 5 25.4 0
    endloop
  endfacet
  facet normal 0.980785 -0.19509 0
    outer loop
      vertex 50.4194 3.08659 1
      vertex 50.8 5 0
      vertex 50.8 5 1
    endloop
  endfacet
  facet normal 0.980785 -0.19509 0
    outer loop
      vertex 50.8 5 0
      vertex 50.4194 3.08659 1
      vertex 50.4194 3.08659 0
    endloop
  endfacet
  facet normal -0.831467 0.555575 0
    outer loop
      vertex 0.380615 22.3134 0
      vertex 1.46448 23.9355 1
      vertex 1.46448 23.9355 0
    endloop
  endfacet
  facet normal -0.831467 0.555575 0
    outer loop
      vertex 1.46448 23.9355 1
      vertex 0.380615 22.3134 0
      vertex 0.380615 22.3134 1
    endloop
  endfacet
  facet normal -0.980784 -0.195097 0
    outer loop
      vertex 0.380615 3.08659 0
      vertex 0 5 1
      vertex 0 5 0
    endloop
  endfacet
  facet normal -0.980784 -0.195097 0
    outer loop
      vertex 0 5 1
      vertex 0.380615 3.08659 0
      vertex 0.380615 3.08659 1
    endloop
  endfacet
  facet normal 0.195091 0.980785 -0
    outer loop
      vertex 47.7134 25.0194 0
      vertex 45.8 25.4 1
      vertex 47.7134 25.0194 1
    endloop
  endfacet
  facet normal 0.195091 0.980785 0
    outer loop
      vertex 45.8 25.4 1
      vertex 47.7134 25.0194 0
      vertex 45.8 25.4 0
    endloop
  endfacet
  facet normal -0 0 1
    outer loop
      vertex 14.8688 19.1431 1
      vertex 16.3337 17.2714 1
      vertex 16.3337 19.1431 1
    endloop
  endfacet
  facet normal 0 0 1
    outer loop
      vertex 16.3337 17.2714 1
      vertex 14.8688 19.1431 1
      vertex 14.8688 17.2714 1
    endloop
  endfacet
  facet normal 0 0 1
    outer loop
      vertex 45.8 25.4 1
      vertex 50.8 20.4 1
      vertex 50.4194 22.3134 1
    endloop
  endfacet
  facet normal 0 0 1
    outer loop
      vertex 32.9 0 1
      vertex 50.8 20.4 1
      vertex 45.8 25.4 1
    endloop
  endfacet
  facet normal 0 0 1
    outer loop
      vertex 45.8 25.4 1
      vertex 50.4194 22.3134 1
      vertex 49.3355 23.9355 1
    endloop
  endfacet
  facet normal 0 0 1
    outer loop
      vertex 50.8 20.4 1
      vertex 32.9 0 1
      vertex 50.8 5 1
    endloop
  endfacet
  facet normal 0 0 1
    outer loop
      vertex 45.8 25.4 1
      vertex 49.3355 23.9355 1
      vertex 47.7134 25.0194 1
    endloop
  endfacet
  facet normal 0 0 1
    outer loop
      vertex 50.8 5 1
      vertex 45.8 0 1
      vertex 50.4194 3.08659 1
    endloop
  endfacet
  facet normal 0 0 1
    outer loop
      vertex 50.4194 3.08659 1
      vertex 45.8 0 1
      vertex 49.3355 1.46448 1
    endloop
  endfacet
  facet normal 0 0 1
    outer loop
      vertex 49.3355 1.46448 1
      vertex 45.8 0 1
      vertex 47.7134 0.380615 1
    endloop
  endfacet
  facet normal 0 0 1
    outer loop
      vertex 50.8 5 1
      vertex 32.9 0 1
      vertex 45.8 0 1
    endloop
  endfacet
  facet normal 0 0 1
    outer loop
      vertex 45.8 25.4 1
      vertex 23.5738 8.46667 1
      vertex 32.9 0 1
    endloop
  endfacet
  facet normal 0 0 1
    outer loop
      vertex 23.5738 8.46667 1
      vertex 45.8 25.4 1
      vertex 23.5738 20.5427 1
    endloop
  endfacet
  facet normal -0 0 1
    outer loop
      vertex 5 25.4 1
      vertex 23.5738 20.5427 1
      vertex 45.8 25.4 1
    endloop
  endfacet
  facet normal 0 0 1
    outer loop
      vertex 22.1091 20.5427 1
      vertex 19.9578 20.5427 1
      vertex 22.1091 8.46667 1
    endloop
  endfacet
  facet normal 0 0 1
    outer loop
      vertex 23.5738 20.5427 1
      vertex 5 25.4 1
      vertex 22.1091 20.5427 1
    endloop
  endfacet
  facet normal 0 0 1
    outer loop
      vertex 22.1091 20.5427 1
      vertex 5 25.4 1
      vertex 19.9578 20.5427 1
    endloop
  endfacet
  facet normal -0 0 1
    outer loop
      vertex 16.3337 17.2714 1
      vertex 18.493 8.46667 1
      vertex 18.493 20.5427 1
    endloop
  endfacet
  facet normal 0 0 1
    outer loop
      vertex 16.3337 19.1431 1
      vertex 18.493 20.5427 1
      vertex 16.3337 20.5427 1
    endloop
  endfacet
  facet normal 0 0 1
    outer loop
      vertex 19.9578 20.5427 1
      vertex 5 25.4 1
      vertex 18.493 20.5427 1
    endloop
  endfacet
  facet normal 0 0 1
    outer loop
      vertex 18.493 20.5427 1
      vertex 5 25.4 1
      vertex 16.3337 20.5427 1
    endloop
  endfacet
  facet normal 0 0 1
    outer loop
      vertex 11.6551 18.4717 1
      vertex 14.8688 19.1431 1
      vertex 14.8688 20.5427 1
    endloop
  endfacet
  facet normal 0 0 1
    outer loop
      vertex 14.8688 19.1431 1
      vertex 12.3475 17.6643 1
      vertex 14.8688 17.2714 1
    endloop
  endfacet
  facet normal 0 0 1
    outer loop
      vertex 13.1946 13.4582 1
      vertex 14.8688 17.2714 1
      vertex 13.2379 14.3175 1
    endloop
  endfacet
  facet normal 0 0 1
    outer loop
      vertex 14.8688 17.2714 1
      vertex 13.1389 15.5872 1
      vertex 13.2379 14.3175 1
    endloop
  endfacet
  facet normal 0 0 1
    outer loop
      vertex 14.8688 17.2714 1
      vertex 12.8422 16.7028 1
      vertex 13.1389 15.5872 1
    endloop
  endfacet
  facet normal 0 0 1
    outer loop
      vertex 14.8688 17.2714 1
      vertex 12.3475 17.6643 1
      vertex 12.8422 16.7028 1
    endloop
  endfacet
  facet normal 0 0 1
    outer loop
      vertex 14.8688 19.1431 1
      vertex 11.6551 18.4717 1
      vertex 12.3475 17.6643 1
    endloop
  endfacet
  facet normal 0 0 1
    outer loop
      vertex 14.8688 20.5427 1
      vertex 10.7806 19.1107 1
      vertex 11.6551 18.4717 1
    endloop
  endfacet
  facet normal 0 0 1
    outer loop
      vertex 14.8688 20.5427 1
      vertex 9.73976 19.5672 1
      vertex 10.7806 19.1107 1
    endloop
  endfacet
  facet normal 0 0 1
    outer loop
      vertex 5 25.4 1
      vertex 9.73976 19.5672 1
      vertex 14.8688 20.5427 1
    endloop
  endfacet
  facet normal 0 0 1
    outer loop
      vertex 16.3337 20.5427 1
      vertex 5 25.4 1
      vertex 14.8688 20.5427 1
    endloop
  endfacet
  facet normal 0 0 1
    outer loop
      vertex 9.73976 19.5672 1
      vertex 5 25.4 1
      vertex 8.53262 19.8411 1
    endloop
  endfacet
  facet normal 0 0 1
    outer loop
      vertex 8.53262 19.8411 1
      vertex 5 25.4 1
      vertex 7.15914 19.9324 1
    endloop
  endfacet
  facet normal 0 0 1
    outer loop
      vertex 5 25.4 1
      vertex 3.36716 19.9324 1
      vertex 7.15914 19.9324 1
    endloop
  endfacet
  facet normal -0 0 1
    outer loop
      vertex 1.46448 23.9355 1
      vertex 3.36716 19.9324 1
      vertex 3.08659 25.0194 1
    endloop
  endfacet
  facet normal -0 0 1
    outer loop
      vertex 3.08659 25.0194 1
      vertex 3.36716 19.9324 1
      vertex 5 25.4 1
    endloop
  endfacet
  facet normal 0 0 1
    outer loop
      vertex 17.9 0 1
      vertex 32.9 0 1
      vertex 23.5738 8.46667 1
    endloop
  endfacet
  facet normal 0 0 1
    outer loop
      vertex 17.9 0 1
      vertex 23.5738 8.46667 1
      vertex 22.1091 8.46667 1
    endloop
  endfacet
  facet normal 0 0 1
    outer loop
      vertex 19.9578 8.46667 1
      vertex 22.1091 8.46667 1
      vertex 19.9578 20.5427 1
    endloop
  endfacet
  facet normal 0 0 1
    outer loop
      vertex 17.9 0 1
      vertex 22.1091 8.46667 1
      vertex 19.9578 8.46667 1
    endloop
  endfacet
  facet normal 0 0 1
    outer loop
      vertex 17.9 0 1
      vertex 19.9578 8.46667 1
      vertex 18.493 8.46667 1
    endloop
  endfacet
  facet normal 0 0 1
    outer loop
      vertex 32.9 0 1
      vertex 17.9 0 1
      vertex 25.4 -200 1
    endloop
  endfacet
  facet normal 0 0 1
    outer loop
      vertex 16.3337 17.2714 1
      vertex 18.493 20.5427 1
      vertex 16.3337 19.1431 1
    endloop
  endfacet
  facet normal 0 0 1
    outer loop
      vertex 18.493 8.46667 1
      vertex 16.3337 17.2714 1
      vertex 16.3337 8.46667 1
    endloop
  endfacet
  facet normal 0 0 1
    outer loop
      vertex 18.493 8.46667 1
      vertex 16.3337 8.46667 1
      vertex 17.9 0 1
    endloop
  endfacet
  facet normal -0 0 1
    outer loop
      vertex 14.8688 8.46667 1
      vertex 17.9 0 1
      vertex 16.3337 8.46667 1
    endloop
  endfacet
  facet normal 0 0 1
    outer loop
      vertex 14.8688 17.2714 1
      vertex 13.1946 13.4582 1
      vertex 14.8688 8.46667 1
    endloop
  endfacet
  facet normal -0 0 1
    outer loop
      vertex 13.065 12.6544 1
      vertex 14.8688 8.46667 1
      vertex 13.1946 13.4582 1
    endloop
  endfacet
  facet normal -0 0 1
    outer loop
      vertex 12.8488 11.906 1
      vertex 14.8688 8.46667 1
      vertex 13.065 12.6544 1
    endloop
  endfacet
  facet normal -0 0 1
    outer loop
      vertex 12.5462 11.213 1
      vertex 14.8688 8.46667 1
      vertex 12.8488 11.906 1
    endloop
  endfacet
  facet normal -0 0 1
    outer loop
      vertex 12.1642 10.5867 1
      vertex 14.8688 8.46667 1
      vertex 12.5462 11.213 1
    endloop
  endfacet
  facet normal -0 0 1
    outer loop
      vertex 11.7101 10.0382 1
      vertex 14.8688 8.46667 1
      vertex 12.1642 10.5867 1
    endloop
  endfacet
  facet normal -0 0 1
    outer loop
      vertex 11.1837 9.56744 1
      vertex 14.8688 8.46667 1
      vertex 11.7101 10.0382 1
    endloop
  endfacet
  facet normal -0 0 1
    outer loop
      vertex 10.585 9.17453 1
      vertex 14.8688 8.46667 1
      vertex 11.1837 9.56744 1
    endloop
  endfacet
  facet normal -0 0 1
    outer loop
      vertex 9.92588 8.86485 1
      vertex 14.8688 8.46667 1
      vertex 10.585 9.17453 1
    endloop
  endfacet
  facet normal 0 0 1
    outer loop
      vertex 14.8688 8.46667 1
      vertex 9.92588 8.86485 1
      vertex 17.9 0 1
    endloop
  endfacet
  facet normal -0 0 1
    outer loop
      vertex 9.21793 8.64362 1
      vertex 17.9 0 1
      vertex 9.92588 8.86485 1
    endloop
  endfacet
  facet normal 0 0 1
    outer loop
      vertex 5 0 1
      vertex 9.21793 8.64362 1
      vertex 8.46117 8.5109 1
    endloop
  endfacet
  facet normal 0 0 1
    outer loop
      vertex 5 0 1
      vertex 8.46117 8.5109 1
      vertex 7.6556 8.46667 1
    endloop
  endfacet
  facet normal 0 0 1
    outer loop
      vertex 9.21793 8.64362 1
      vertex 5 0 1
      vertex 17.9 0 1
    endloop
  endfacet
  facet normal -0 0 1
    outer loop
      vertex 3.36716 8.46667 1
      vertex 5 0 1
      vertex 7.6556 8.46667 1
    endloop
  endfacet
  facet normal 0 0 1
    outer loop
      vertex 3.36716 8.46667 1
      vertex 3.08659 0.380615 1
      vertex 5 0 1
    endloop
  endfacet
  facet normal 0 0 1
    outer loop
      vertex 3.36716 19.9324 1
      vertex 0 20.4 1
      vertex 3.36716 8.46667 1
    endloop
  endfacet
  facet normal -0 0 1
    outer loop
      vertex 0.380615 22.3134 1
      vertex 3.36716 19.9324 1
      vertex 1.46448 23.9355 1
    endloop
  endfacet
  facet normal 0 0 1
    outer loop
      vertex 0 5 1
      vertex 3.36716 8.46667 1
      vertex 0 20.4 1
    endloop
  endfacet
  facet normal 0 0 1
    outer loop
      vertex 3.36716 19.9324 1
      vertex 0.380615 22.3134 1
      vertex 0 20.4 1
    endloop
  endfacet
  facet normal 0 -0 1
    outer loop
      vertex 0.380615 3.08659 1
      vertex 3.36716 8.46667 1
      vertex 0 5 1
    endloop
  endfacet
  facet normal 0 0 1
    outer loop
      vertex 3.36716 8.46667 1
      vertex 1.46448 1.46448 1
      vertex 3.08659 0.380615 1
    endloop
  endfacet
  facet normal 0 0 1
    outer loop
      vertex 3.36716 8.46667 1
      vertex 0.380615 3.08659 1
      vertex 1.46448 1.46448 1
    endloop
  endfacet
  facet normal 0 0 1
    outer loop
      vertex 8.16798 18.6175 1
      vertex 11.6755 14.3175 1
      vertex 11.6025 15.3202 1
    endloop
  endfacet
  facet normal 0 0 1
    outer loop
      vertex 11.6755 14.3175 1
      vertex 7.12662 18.6874 1
      vertex 11.6434 13.633 1
    endloop
  endfacet
  facet normal 0 -0 1
    outer loop
      vertex 7.47656 9.71166 1
      vertex 11.6434 13.633 1
      vertex 7.12662 18.6874 1
    endloop
  endfacet
  facet normal 0 0 1
    outer loop
      vertex 9.07862 18.4077 1
      vertex 11.6025 15.3202 1
      vertex 11.3835 16.1962 1
    endloop
  endfacet
  facet normal 0 0 1
    outer loop
      vertex 11.6755 14.3175 1
      vertex 8.16798 18.6175 1
      vertex 7.12662 18.6874 1
    endloop
  endfacet
  facet normal 0 0 1
    outer loop
      vertex 9.85854 18.058 1
      vertex 11.3835 16.1962 1
      vertex 11.0186 16.9457 1
    endloop
  endfacet
  facet normal 0 0 1
    outer loop
      vertex 11.6434 13.633 1
      vertex 7.47656 9.71166 1
      vertex 11.5473 12.9952 1
    endloop
  endfacet
  facet normal 0 -0 1
    outer loop
      vertex 8.08815 9.74624 1
      vertex 11.3871 12.4042 1
      vertex 7.47656 9.71166 1
    endloop
  endfacet
  facet normal 0 0 1
    outer loop
      vertex 9.85854 18.058 1
      vertex 11.0186 16.9457 1
      vertex 10.5078 17.5684 1
    endloop
  endfacet
  facet normal 0 0 1
    outer loop
      vertex 11.3871 12.4042 1
      vertex 8.08815 9.74624 1
      vertex 11.1628 11.86 1
    endloop
  endfacet
  facet normal 0 0 1
    outer loop
      vertex 11.3835 16.1962 1
      vertex 9.85854 18.058 1
      vertex 9.07862 18.4077 1
    endloop
  endfacet
  facet normal 0 0 1
    outer loop
      vertex 11.6025 15.3202 1
      vertex 9.07862 18.4077 1
      vertex 8.16798 18.6175 1
    endloop
  endfacet
  facet normal 0 -0 1
    outer loop
      vertex 8.66158 9.84999 1
      vertex 11.1628 11.86 1
      vertex 8.08815 9.74624 1
    endloop
  endfacet
  facet normal 0 0 1
    outer loop
      vertex 10.8788 11.3697 1
      vertex 8.66158 9.84999 1
      vertex 10.5393 10.9405 1
    endloop
  endfacet
  facet normal 0 0 1
    outer loop
      vertex 10.5393 10.9405 1
      vertex 8.66158 9.84999 1
      vertex 10.1444 10.5722 1
    endloop
  endfacet
  facet normal 0 0 1
    outer loop
      vertex 9.69404 10.265 1
      vertex 8.66158 9.84999 1
      vertex 9.19689 10.0229 1
    endloop
  endfacet
  facet normal 0 0 1
    outer loop
      vertex 10.1444 10.5722 1
      vertex 8.66158 9.84999 1
      vertex 9.69404 10.265 1
    endloop
  endfacet
  facet normal 0 0 1
    outer loop
      vertex 11.1628 11.86 1
      vertex 8.66158 9.84999 1
      vertex 10.8788 11.3697 1
    endloop
  endfacet
  facet normal 0 0 1
    outer loop
      vertex 11.5473 12.9952 1
      vertex 7.47656 9.71166 1
      vertex 11.3871 12.4042 1
    endloop
  endfacet
  facet normal 0 0 1
    outer loop
      vertex 4.92139 9.71166 1
      vertex 7.12662 18.6874 1
      vertex 4.92139 18.6874 1
    endloop
  endfacet
  facet normal 0 0 1
    outer loop
      vertex 7.12662 18.6874 1
      vertex 4.92139 9.71166 1
      vertex 7.47656 9.71166 1
    endloop
  endfacet
  facet normal 0.555587 0.831458 -0
    outer loop
      vertex 49.3355 23.9355 0
      vertex 47.7134 25.0194 1
      vertex 49.3355 23.9355 1
    endloop
  endfacet
  facet normal 0.555587 0.831458 0
    outer loop
      vertex 47.7134 25.0194 1
      vertex 49.3355 23.9355 0
      vertex 47.7134 25.0194 0
    endloop
  endfacet
  facet normal -0 0 1
    outer loop
      vertex 14.8688 20.5427 2
      vertex 16.3337 19.1431 2
      vertex 16.3337 20.5427 2
    endloop
  endfacet
  facet normal 0 0 1
    outer loop
      vertex 16.3337 19.1431 2
      vertex 14.8688 20.5427 2
      vertex 14.8688 19.1431 2
    endloop
  endfacet
  facet normal -0 0 1
    outer loop
      vertex 18.493 20.5427 2
      vertex 19.9578 8.46667 2
      vertex 19.9578 20.5427 2
    endloop
  endfacet
  facet normal 0 0 1
    outer loop
      vertex 19.9578 8.46667 2
      vertex 18.493 20.5427 2
      vertex 18.493 8.46667 2
    endloop
  endfacet
  facet normal -0 0 1
    outer loop
      vertex 22.1091 20.5427 2
      vertex 23.5738 8.46667 2
      vertex 23.5738 20.5427 2
    endloop
  endfacet
  facet normal 0 0 1
    outer loop
      vertex 23.5738 8.46667 2
      vertex 22.1091 20.5427 2
      vertex 22.1091 8.46667 2
    endloop
  endfacet
  facet normal -0 0 1
    outer loop
      vertex 11.6025 15.3202 2
      vertex 13.2379 14.3175 2
      vertex 13.1389 15.5872 2
    endloop
  endfacet
  facet normal 0 0 1
    outer loop
      vertex 11.6434 13.633 2
      vertex 13.2379 14.3175 2
      vertex 11.6755 14.3175 2
    endloop
  endfacet
  facet normal 0 0 1
    outer loop
      vertex 13.2379 14.3175 2
      vertex 11.6434 13.633 2
      vertex 13.1946 13.4582 2
    endloop
  endfacet
  facet normal 0 0 1
    outer loop
      vertex 11.6025 15.3202 2
      vertex 13.1389 15.5872 2
      vertex 12.8422 16.7028 2
    endloop
  endfacet
  facet normal 0 0 1
    outer loop
      vertex 11.5473 12.9952 2
      vertex 13.1946 13.4582 2
      vertex 11.6434 13.633 2
    endloop
  endfacet
  facet normal 0 0 1
    outer loop
      vertex 11.3835 16.1962 2
      vertex 12.8422 16.7028 2
      vertex 12.3475 17.6643 2
    endloop
  endfacet
  facet normal 0 0 1
    outer loop
      vertex 13.1946 13.4582 2
      vertex 11.5473 12.9952 2
      vertex 13.065 12.6544 2
    endloop
  endfacet
  facet normal 0 0 1
    outer loop
      vertex 13.065 12.6544 2
      vertex 11.5473 12.9952 2
      vertex 12.8488 11.906 2
    endloop
  endfacet
  facet normal -0 0 1
    outer loop
      vertex 11.3871 12.4042 2
      vertex 12.8488 11.906 2
      vertex 11.5473 12.9952 2
    endloop
  endfacet
  facet normal 0 0 1
    outer loop
      vertex 11.0186 16.9457 2
      vertex 12.3475 17.6643 2
      vertex 11.6551 18.4717 2
    endloop
  endfacet
  facet normal 0 0 1
    outer loop
      vertex 13.2379 14.3175 2
      vertex 11.6025 15.3202 2
      vertex 11.6755 14.3175 2
    endloop
  endfacet
  facet normal 0 0 1
    outer loop
      vertex 12.8422 16.7028 2
      vertex 11.3835 16.1962 2
      vertex 11.6025 15.3202 2
    endloop
  endfacet
  facet normal 0 0 1
    outer loop
      vertex 12.3475 17.6643 2
      vertex 11.0186 16.9457 2
      vertex 11.3835 16.1962 2
    endloop
  endfacet
  facet normal 0 0 1
    outer loop
      vertex 10.5078 17.5684 2
      vertex 11.6551 18.4717 2
      vertex 10.7806 19.1107 2
    endloop
  endfacet
  facet normal 0 0 1
    outer loop
      vertex 11.6551 18.4717 2
      vertex 10.5078 17.5684 2
      vertex 11.0186 16.9457 2
    endloop
  endfacet
  facet normal 0 0 1
    outer loop
      vertex 10.7806 19.1107 2
      vertex 9.85854 18.058 2
      vertex 10.5078 17.5684 2
    endloop
  endfacet
  facet normal 0 0 1
    outer loop
      vertex 9.73976 19.5672 2
      vertex 9.85854 18.058 2
      vertex 10.7806 19.1107 2
    endloop
  endfacet
  facet normal 0 0 1
    outer loop
      vertex 9.73976 19.5672 2
      vertex 9.07862 18.4077 2
      vertex 9.85854 18.058 2
    endloop
  endfacet
  facet normal 0 0 1
    outer loop
      vertex 8.53262 19.8411 2
      vertex 9.07862 18.4077 2
      vertex 9.73976 19.5672 2
    endloop
  endfacet
  facet normal 0 0 1
    outer loop
      vertex 8.53262 19.8411 2
      vertex 8.16798 18.6175 2
      vertex 9.07862 18.4077 2
    endloop
  endfacet
  facet normal 0 0 1
    outer loop
      vertex 7.15914 19.9324 2
      vertex 8.16798 18.6175 2
      vertex 8.53262 19.8411 2
    endloop
  endfacet
  facet normal 0 0 1
    outer loop
      vertex 7.15914 19.9324 2
      vertex 7.12662 18.6874 2
      vertex 8.16798 18.6175 2
    endloop
  endfacet
  facet normal 0 0 1
    outer loop
      vertex 7.15914 19.9324 2
      vertex 4.92139 18.6874 2
      vertex 7.12662 18.6874 2
    endloop
  endfacet
  facet normal 0 0 1
    outer loop
      vertex 4.92139 18.6874 2
      vertex 3.36716 19.9324 2
      vertex 4.92139 9.71166 2
    endloop
  endfacet
  facet normal -0 0 1
    outer loop
      vertex 3.36716 19.9324 2
      vertex 4.92139 18.6874 2
      vertex 7.15914 19.9324 2
    endloop
  endfacet
  facet normal 0 0 1
    outer loop
      vertex 12.8488 11.906 2
      vertex 11.3871 12.4042 2
      vertex 12.5462 11.213 2
    endloop
  endfacet
  facet normal -0 0 1
    outer loop
      vertex 11.1628 11.86 2
      vertex 12.5462 11.213 2
      vertex 11.3871 12.4042 2
    endloop
  endfacet
  facet normal 0 0 1
    outer loop
      vertex 12.5462 11.213 2
      vertex 11.1628 11.86 2
      vertex 12.1642 10.5867 2
    endloop
  endfacet
  facet normal -0 0 1
    outer loop
      vertex 10.8788 11.3697 2
      vertex 12.1642 10.5867 2
      vertex 11.1628 11.86 2
    endloop
  endfacet
  facet normal 0 0 1
    outer loop
      vertex 12.1642 10.5867 2
      vertex 10.8788 11.3697 2
      vertex 11.7101 10.0382 2
    endloop
  endfacet
  facet normal -0 0 1
    outer loop
      vertex 10.5393 10.9405 2
      vertex 11.7101 10.0382 2
      vertex 10.8788 11.3697 2
    endloop
  endfacet
  facet normal 0 0 1
    outer loop
      vertex 11.7101 10.0382 2
      vertex 10.5393 10.9405 2
      vertex 11.1837 9.56744 2
    endloop
  endfacet
  facet normal -0 0 1
    outer loop
      vertex 10.1444 10.5722 2
      vertex 11.1837 9.56744 2
      vertex 10.5393 10.9405 2
    endloop
  endfacet
  facet normal 0 0 1
    outer loop
      vertex 11.1837 9.56744 2
      vertex 10.1444 10.5722 2
      vertex 10.585 9.17453 2
    endloop
  endfacet
  facet normal -0 0 1
    outer loop
      vertex 9.69404 10.265 2
      vertex 10.585 9.17453 2
      vertex 10.1444 10.5722 2
    endloop
  endfacet
  facet normal 0 0 1
    outer loop
      vertex 10.585 9.17453 2
      vertex 9.69404 10.265 2
      vertex 9.92588 8.86485 2
    endloop
  endfacet
  facet normal -0 0 1
    outer loop
      vertex 9.19689 10.0229 2
      vertex 9.92588 8.86485 2
      vertex 9.69404 10.265 2
    endloop
  endfacet
  facet normal 0 0 1
    outer loop
      vertex 9.92588 8.86485 2
      vertex 9.19689 10.0229 2
      vertex 9.21793 8.64362 2
    endloop
  endfacet
  facet normal -0 0 1
    outer loop
      vertex 8.66158 9.84999 2
      vertex 9.21793 8.64362 2
      vertex 9.19689 10.0229 2
    endloop
  endfacet
  facet normal 0 0 1
    outer loop
      vertex 8.66158 9.84999 2
      vertex 8.46117 8.5109 2
      vertex 9.21793 8.64362 2
    endloop
  endfacet
  facet normal -0 0 1
    outer loop
      vertex 8.08815 9.74624 2
      vertex 8.46117 8.5109 2
      vertex 8.66158 9.84999 2
    endloop
  endfacet
  facet normal 0 0 1
    outer loop
      vertex 8.08815 9.74624 2
      vertex 7.6556 8.46667 2
      vertex 8.46117 8.5109 2
    endloop
  endfacet
  facet normal -0 0 1
    outer loop
      vertex 7.47656 9.71166 2
      vertex 7.6556 8.46667 2
      vertex 8.08815 9.74624 2
    endloop
  endfacet
  facet normal -0 0 1
    outer loop
      vertex 4.92139 9.71166 2
      vertex 7.6556 8.46667 2
      vertex 7.47656 9.71166 2
    endloop
  endfacet
  facet normal 0 0 1
    outer loop
      vertex 4.92139 9.71166 2
      vertex 3.36716 8.46667 2
      vertex 7.6556 8.46667 2
    endloop
  endfacet
  facet normal 0 0 1
    outer loop
      vertex 3.36716 8.46667 2
      vertex 4.92139 9.71166 2
      vertex 3.36716 19.9324 2
    endloop
  endfacet
  facet normal -0 0 1
    outer loop
      vertex 14.8688 17.2714 2
      vertex 16.3337 8.46667 2
      vertex 16.3337 17.2714 2
    endloop
  endfacet
  facet normal 0 0 1
    outer loop
      vertex 16.3337 8.46667 2
      vertex 14.8688 17.2714 2
      vertex 14.8688 8.46667 2
    endloop
  endfacet
  facet normal 0 1 -0
    outer loop
      vertex 16.3337 20.5427 1
      vertex 14.8688 20.5427 2
      vertex 16.3337 20.5427 2
    endloop
  endfacet
  facet normal 0 1 0
    outer loop
      vertex 14.8688 20.5427 2
      vertex 16.3337 20.5427 1
      vertex 14.8688 20.5427 1
    endloop
  endfacet
  facet normal -1 0 0
    outer loop
      vertex 14.8688 19.1431 1
      vertex 14.8688 20.5427 2
      vertex 14.8688 20.5427 1
    endloop
  endfacet
  facet normal -1 -0 0
    outer loop
      vertex 14.8688 20.5427 2
      vertex 14.8688 19.1431 1
      vertex 14.8688 19.1431 2
    endloop
  endfacet
  facet normal 0 -1 0
    outer loop
      vertex 14.8688 19.1431 1
      vertex 16.3337 19.1431 2
      vertex 14.8688 19.1431 2
    endloop
  endfacet
  facet normal 0 -1 -0
    outer loop
      vertex 16.3337 19.1431 2
      vertex 14.8688 19.1431 1
      vertex 16.3337 19.1431 1
    endloop
  endfacet
  facet normal 1 -0 0
    outer loop
      vertex 16.3337 19.1431 2
      vertex 16.3337 20.5427 1
      vertex 16.3337 20.5427 2
    endloop
  endfacet
  facet normal 1 0 0
    outer loop
      vertex 16.3337 20.5427 1
      vertex 16.3337 19.1431 2
      vertex 16.3337 19.1431 1
    endloop
  endfacet
  facet normal 0 1 -0
    outer loop
      vertex 19.9578 20.5427 1
      vertex 18.493 20.5427 2
      vertex 19.9578 20.5427 2
    endloop
  endfacet
  facet normal 0 1 0
    outer loop
      vertex 18.493 20.5427 2
      vertex 19.9578 20.5427 1
      vertex 18.493 20.5427 1
    endloop
  endfacet
  facet normal -1 0 0
    outer loop
      vertex 18.493 8.46667 1
      vertex 18.493 20.5427 2
      vertex 18.493 20.5427 1
    endloop
  endfacet
  facet normal -1 -0 0
    outer loop
      vertex 18.493 20.5427 2
      vertex 18.493 8.46667 1
      vertex 18.493 8.46667 2
    endloop
  endfacet
  facet normal 0 -1 0
    outer loop
      vertex 18.493 8.46667 1
      vertex 19.9578 8.46667 2
      vertex 18.493 8.46667 2
    endloop
  endfacet
  facet normal 0 -1 -0
    outer loop
      vertex 19.9578 8.46667 2
      vertex 18.493 8.46667 1
      vertex 19.9578 8.46667 1
    endloop
  endfacet
  facet normal 1 -0 0
    outer loop
      vertex 19.9578 8.46667 2
      vertex 19.9578 20.5427 1
      vertex 19.9578 20.5427 2
    endloop
  endfacet
  facet normal 1 0 0
    outer loop
      vertex 19.9578 20.5427 1
      vertex 19.9578 8.46667 2
      vertex 19.9578 8.46667 1
    endloop
  endfacet
  facet normal 0 1 -0
    outer loop
      vertex 23.5738 20.5427 1
      vertex 22.1091 20.5427 2
      vertex 23.5738 20.5427 2
    endloop
  endfacet
  facet normal 0 1 0
    outer loop
      vertex 22.1091 20.5427 2
      vertex 23.5738 20.5427 1
      vertex 22.1091 20.5427 1
    endloop
  endfacet
  facet normal -1 0 0
    outer loop
      vertex 22.1091 8.46667 1
      vertex 22.1091 20.5427 2
      vertex 22.1091 20.5427 1
    endloop
  endfacet
  facet normal -1 -0 0
    outer loop
      vertex 22.1091 20.5427 2
      vertex 22.1091 8.46667 1
      vertex 22.1091 8.46667 2
    endloop
  endfacet
  facet normal 0 -1 0
    outer loop
      vertex 22.1091 8.46667 1
      vertex 23.5738 8.46667 2
      vertex 22.1091 8.46667 2
    endloop
  endfacet
  facet normal 0 -1 -0
    outer loop
      vertex 23.5738 8.46667 2
      vertex 22.1091 8.46667 1
      vertex 23.5738 8.46667 1
    endloop
  endfacet
  facet normal 1 -0 0
    outer loop
      vertex 23.5738 8.46667 2
      vertex 23.5738 20.5427 1
      vertex 23.5738 20.5427 2
    endloop
  endfacet
  facet normal 1 0 0
    outer loop
      vertex 23.5738 20.5427 1
      vertex 23.5738 8.46667 2
      vertex 23.5738 8.46667 1
    endloop
  endfacet
  facet normal 0.172743 -0.984967 0
    outer loop
      vertex 8.46117 8.5109 1
      vertex 9.21793 8.64362 2
      vertex 8.46117 8.5109 2
    endloop
  endfacet
  facet normal 0.172743 -0.984967 0
    outer loop
      vertex 9.21793 8.64362 2
      vertex 8.46117 8.5109 1
      vertex 9.21793 8.64362 1
    endloop
  endfacet
  facet normal 0.29827 -0.954482 0
    outer loop
      vertex 9.21793 8.64362 1
      vertex 9.92588 8.86485 2
      vertex 9.21793 8.64362 2
    endloop
  endfacet
  facet normal 0.29827 -0.954482 0
    outer loop
      vertex 9.92588 8.86485 2
      vertex 9.21793 8.64362 1
      vertex 9.92588 8.86485 1
    endloop
  endfacet
  facet normal 0.425241 -0.90508 0
    outer loop
      vertex 9.92588 8.86485 1
      vertex 10.585 9.17453 2
      vertex 9.92588 8.86485 2
    endloop
  endfacet
  facet normal 0.425241 -0.90508 0
    outer loop
      vertex 10.585 9.17453 2
      vertex 9.92588 8.86485 1
      vertex 10.585 9.17453 1
    endloop
  endfacet
  facet normal 0.548669 -0.83604 0
    outer loop
      vertex 10.585 9.17453 1
      vertex 11.1837 9.56744 2
      vertex 10.585 9.17453 2
    endloop
  endfacet
  facet normal 0.548669 -0.83604 0
    outer loop
      vertex 11.1837 9.56744 2
      vertex 10.585 9.17453 1
      vertex 11.1837 9.56744 1
    endloop
  endfacet
  facet normal 0.666614 -0.745403 0
    outer loop
      vertex 11.1837 9.56744 1
      vertex 11.7101 10.0382 2
      vertex 11.1837 9.56744 2
    endloop
  endfacet
  facet normal 0.666614 -0.745403 0
    outer loop
      vertex 11.7101 10.0382 2
      vertex 11.1837 9.56744 1
      vertex 11.7101 10.0382 1
    endloop
  endfacet
  facet normal 0.770278 -0.637709 0
    outer loop
      vertex 11.7101 10.0382 2
      vertex 12.1642 10.5867 1
      vertex 12.1642 10.5867 2
    endloop
  endfacet
  facet normal 0.770278 -0.637709 0
    outer loop
      vertex 12.1642 10.5867 1
      vertex 11.7101 10.0382 2
      vertex 11.7101 10.0382 1
    endloop
  endfacet
  facet normal 0.85373 -0.520716 0
    outer loop
      vertex 12.1642 10.5867 2
      vertex 12.5462 11.213 1
      vertex 12.5462 11.213 2
    endloop
  endfacet
  facet normal 0.85373 -0.520716 0
    outer loop
      vertex 12.5462 11.213 1
      vertex 12.1642 10.5867 2
      vertex 12.1642 10.5867 1
    endloop
  endfacet
  facet normal 0.916442 -0.400167 0
    outer loop
      vertex 12.5462 11.213 2
      vertex 12.8488 11.906 1
      vertex 12.8488 11.906 2
    endloop
  endfacet
  facet normal 0.916442 -0.400167 0
    outer loop
      vertex 12.8488 11.906 1
      vertex 12.5462 11.213 2
      vertex 12.5462 11.213 1
    endloop
  endfacet
  facet normal 0.960716 -0.277534 0
    outer loop
      vertex 12.8488 11.906 2
      vertex 13.065 12.6544 1
      vertex 13.065 12.6544 2
    endloop
  endfacet
  facet normal 0.960716 -0.277534 0
    outer loop
      vertex 13.065 12.6544 1
      vertex 12.8488 11.906 2
      vertex 12.8488 11.906 1
    endloop
  endfacet
  facet normal 0.98725 -0.159178 0
    outer loop
      vertex 13.065 12.6544 2
      vertex 13.1946 13.4582 1
      vertex 13.1946 13.4582 2
    endloop
  endfacet
  facet normal 0.98725 -0.159178 0
    outer loop
      vertex 13.1946 13.4582 1
      vertex 13.065 12.6544 2
      vertex 13.065 12.6544 1
    endloop
  endfacet
  facet normal 0.998733 -0.050326 0
    outer loop
      vertex 13.1946 13.4582 2
      vertex 13.2379 14.3175 1
      vertex 13.2379 14.3175 2
    endloop
  endfacet
  facet normal 0.998733 -0.050326 0
    outer loop
      vertex 13.2379 14.3175 1
      vertex 13.1946 13.4582 2
      vertex 13.1946 13.4582 1
    endloop
  endfacet
  facet normal 0.996974 0.0777352 0
    outer loop
      vertex 13.2379 14.3175 2
      vertex 13.1389 15.5872 1
      vertex 13.1389 15.5872 2
    endloop
  endfacet
  facet normal 0.996974 0.0777352 0
    outer loop
      vertex 13.1389 15.5872 1
      vertex 13.2379 14.3175 2
      vertex 13.2379 14.3175 1
    endloop
  endfacet
  facet normal 0.966406 0.257021 0
    outer loop
      vertex 13.1389 15.5872 2
      vertex 12.8422 16.7028 1
      vertex 12.8422 16.7028 2
    endloop
  endfacet
  facet normal 0.966406 0.257021 0
    outer loop
      vertex 12.8422 16.7028 1
      vertex 13.1389 15.5872 2
      vertex 13.1389 15.5872 1
    endloop
  endfacet
  facet normal 0.889207 0.457505 0
    outer loop
      vertex 12.8422 16.7028 2
      vertex 12.3475 17.6643 1
      vertex 12.3475 17.6643 2
    endloop
  endfacet
  facet normal 0.889207 0.457505 0
    outer loop
      vertex 12.3475 17.6643 1
      vertex 12.8422 16.7028 2
      vertex 12.8422 16.7028 1
    endloop
  endfacet
  facet normal 0.759097 0.650977 0
    outer loop
      vertex 12.3475 17.6643 2
      vertex 11.6551 18.4717 1
      vertex 11.6551 18.4717 2
    endloop
  endfacet
  facet normal 0.759097 0.650977 0
    outer loop
      vertex 11.6551 18.4717 1
      vertex 12.3475 17.6643 2
      vertex 12.3475 17.6643 1
    endloop
  endfacet
  facet normal 0.589982 0.807416 -0
    outer loop
      vertex 11.6551 18.4717 1
      vertex 10.7806 19.1107 2
      vertex 11.6551 18.4717 2
    endloop
  endfacet
  facet normal 0.589982 0.807416 0
    outer loop
      vertex 10.7806 19.1107 2
      vertex 11.6551 18.4717 1
      vertex 10.7806 19.1107 1
    endloop
  endfacet
  facet normal 0.401655 0.915791 -0
    outer loop
      vertex 10.7806 19.1107 1
      vertex 9.73976 19.5672 2
      vertex 10.7806 19.1107 2
    endloop
  endfacet
  facet normal 0.401655 0.915791 0
    outer loop
      vertex 9.73976 19.5672 2
      vertex 10.7806 19.1107 1
      vertex 9.73976 19.5672 1
    endloop
  endfacet
  facet normal 0.221275 0.975211 -0
    outer loop
      vertex 9.73976 19.5672 1
      vertex 8.53262 19.8411 2
      vertex 9.73976 19.5672 2
    endloop
  endfacet
  facet normal 0.221275 0.975211 0
    outer loop
      vertex 8.53262 19.8411 2
      vertex 9.73976 19.5672 1
      vertex 8.53262 19.8411 1
    endloop
  endfacet
  facet normal 0.0663271 0.997798 -0
    outer loop
      vertex 8.53262 19.8411 1
      vertex 7.15914 19.9324 2
      vertex 8.53262 19.8411 2
    endloop
  endfacet
  facet normal 0.0663271 0.997798 0
    outer loop
      vertex 7.15914 19.9324 2
      vertex 8.53262 19.8411 1
      vertex 7.15914 19.9324 1
    endloop
  endfacet
  facet normal 0 1 -0
    outer loop
      vertex 7.15914 19.9324 1
      vertex 3.36716 19.9324 2
      vertex 7.15914 19.9324 2
    endloop
  endfacet
  facet normal 0 1 0
    outer loop
      vertex 3.36716 19.9324 2
      vertex 7.15914 19.9324 1
      vertex 3.36716 19.9324 1
    endloop
  endfacet
  facet normal -1 0 0
    outer loop
      vertex 3.36716 8.46667 1
      vertex 3.36716 19.9324 2
      vertex 3.36716 19.9324 1
    endloop
  endfacet
  facet normal -1 -0 0
    outer loop
      vertex 3.36716 19.9324 2
      vertex 3.36716 8.46667 1
      vertex 3.36716 8.46667 2
    endloop
  endfacet
  facet normal 0 -1 0
    outer loop
      vertex 3.36716 8.46667 1
      vertex 7.6556 8.46667 2
      vertex 3.36716 8.46667 2
    endloop
  endfacet
  facet normal 0 -1 -0
    outer loop
      vertex 7.6556 8.46667 2
      vertex 3.36716 8.46667 1
      vertex 7.6556 8.46667 1
    endloop
  endfacet
  facet normal 0.0548227 -0.998496 0
    outer loop
      vertex 7.6556 8.46667 1
      vertex 8.46117 8.5109 2
      vertex 7.6556 8.46667 2
    endloop
  endfacet
  facet normal 0.0548227 -0.998496 0
    outer loop
      vertex 8.46117 8.5109 2
      vertex 7.6556 8.46667 1
      vertex 8.46117 8.5109 1
    endloop
  endfacet
  facet normal 1 -0 0
    outer loop
      vertex 4.92139 9.71166 2
      vertex 4.92139 18.6874 1
      vertex 4.92139 18.6874 2
    endloop
  endfacet
  facet normal 1 0 0
    outer loop
      vertex 4.92139 18.6874 1
      vertex 4.92139 9.71166 2
      vertex 4.92139 9.71166 1
    endloop
  endfacet
  facet normal 0 -1 0
    outer loop
      vertex 4.92139 18.6874 1
      vertex 7.12662 18.6874 2
      vertex 4.92139 18.6874 2
    endloop
  endfacet
  facet normal 0 -1 -0
    outer loop
      vertex 7.12662 18.6874 2
      vertex 4.92139 18.6874 1
      vertex 7.12662 18.6874 1
    endloop
  endfacet
  facet normal -0.0669731 -0.997755 0
    outer loop
      vertex 7.12662 18.6874 1
      vertex 8.16798 18.6175 2
      vertex 7.12662 18.6874 2
    endloop
  endfacet
  facet normal -0.0669731 -0.997755 -0
    outer loop
      vertex 8.16798 18.6175 2
      vertex 7.12662 18.6874 1
      vertex 8.16798 18.6175 1
    endloop
  endfacet
  facet normal -0.224506 -0.974473 0
    outer loop
      vertex 8.16798 18.6175 1
      vertex 9.07862 18.4077 2
      vertex 8.16798 18.6175 2
    endloop
  endfacet
  facet normal -0.224506 -0.974473 -0
    outer loop
      vertex 9.07862 18.4077 2
      vertex 8.16798 18.6175 1
      vertex 9.07862 18.4077 1
    endloop
  endfacet
  facet normal -0.409135 -0.912474 0
    outer loop
      vertex 9.07862 18.4077 1
      vertex 9.85854 18.058 2
      vertex 9.07862 18.4077 2
    endloop
  endfacet
  facet normal -0.409135 -0.912474 -0
    outer loop
      vertex 9.85854 18.058 2
      vertex 9.07862 18.4077 1
      vertex 9.85854 18.058 1
    endloop
  endfacet
  facet normal -0.602088 -0.79843 0
    outer loop
      vertex 9.85854 18.058 1
      vertex 10.5078 17.5684 2
      vertex 9.85854 18.058 2
    endloop
  endfacet
  facet normal -0.602088 -0.79843 -0
    outer loop
      vertex 10.5078 17.5684 2
      vertex 9.85854 18.058 1
      vertex 10.5078 17.5684 1
    endloop
  endfacet
  facet normal -0.773155 -0.634218 0
    outer loop
      vertex 11.0186 16.9457 1
      vertex 10.5078 17.5684 2
      vertex 10.5078 17.5684 1
    endloop
  endfacet
  facet normal -0.773155 -0.634218 0
    outer loop
      vertex 10.5078 17.5684 2
      vertex 11.0186 16.9457 1
      vertex 11.0186 16.9457 2
    endloop
  endfacet
  facet normal -0.899104 -0.437736 0
    outer loop
      vertex 11.3835 16.1962 1
      vertex 11.0186 16.9457 2
      vertex 11.0186 16.9457 1
    endloop
  endfacet
  facet normal -0.899104 -0.437736 0
    outer loop
      vertex 11.0186 16.9457 2
      vertex 11.3835 16.1962 1
      vertex 11.3835 16.1962 2
    endloop
  endfacet
  facet normal -0.970143 -0.242536 0
    outer loop
      vertex 11.6025 15.3202 1
      vertex 11.3835 16.1962 2
      vertex 11.3835 16.1962 1
    endloop
  endfacet
  facet normal -0.970143 -0.242536 0
    outer loop
      vertex 11.3835 16.1962 2
      vertex 11.6025 15.3202 1
      vertex 11.6025 15.3202 2
    endloop
  endfacet
  facet normal -0.99736 -0.0726113 0
    outer loop
      vertex 11.6755 14.3175 1
      vertex 11.6025 15.3202 2
      vertex 11.6025 15.3202 1
    endloop
  endfacet
  facet normal -0.99736 -0.0726113 0
    outer loop
      vertex 11.6025 15.3202 2
      vertex 11.6755 14.3175 1
      vertex 11.6755 14.3175 2
    endloop
  endfacet
  facet normal -0.998902 0.0468441 0
    outer loop
      vertex 11.6434 13.633 1
      vertex 11.6755 14.3175 2
      vertex 11.6755 14.3175 1
    endloop
  endfacet
  facet normal -0.998902 0.0468441 0
    outer loop
      vertex 11.6755 14.3175 2
      vertex 11.6434 13.633 1
      vertex 11.6434 13.633 2
    endloop
  endfacet
  facet normal -0.988838 0.148992 0
    outer loop
      vertex 11.5473 12.9952 1
      vertex 11.6434 13.633 2
      vertex 11.6434 13.633 1
    endloop
  endfacet
  facet normal -0.988838 0.148992 0
    outer loop
      vertex 11.6434 13.633 2
      vertex 11.5473 12.9952 1
      vertex 11.5473 12.9952 2
    endloop
  endfacet
  facet normal -0.96517 0.261625 0
    outer loop
      vertex 11.3871 12.4042 1
      vertex 11.5473 12.9952 2
      vertex 11.5473 12.9952 1
    endloop
  endfacet
  facet normal -0.96517 0.261625 0
    outer loop
      vertex 11.5473 12.9952 2
      vertex 11.3871 12.4042 1
      vertex 11.3871 12.4042 2
    endloop
  endfacet
  facet normal -0.924548 0.381066 0
    outer loop
      vertex 11.1628 11.86 1
      vertex 11.3871 12.4042 2
      vertex 11.3871 12.4042 1
    endloop
  endfacet
  facet normal -0.924548 0.381066 0
    outer loop
      vertex 11.3871 12.4042 2
      vertex 11.1628 11.86 1
      vertex 11.1628 11.86 2
    endloop
  endfacet
  facet normal -0.865318 0.501224 0
    outer loop
      vertex 10.8788 11.3697 1
      vertex 11.1628 11.86 2
      vertex 11.1628 11.86 1
    endloop
  endfacet
  facet normal -0.865318 0.501224 0
    outer loop
      vertex 11.1628 11.86 2
      vertex 10.8788 11.3697 1
      vertex 10.8788 11.3697 2
    endloop
  endfacet
  facet normal -0.784298 0.620385 0
    outer loop
      vertex 10.5393 10.9405 1
      vertex 10.8788 11.3697 2
      vertex 10.8788 11.3697 1
    endloop
  endfacet
  facet normal -0.784298 0.620385 0
    outer loop
      vertex 10.8788 11.3697 2
      vertex 10.5393 10.9405 1
      vertex 10.5393 10.9405 2
    endloop
  endfacet
  facet normal -0.682048 0.731308 0
    outer loop
      vertex 10.5393 10.9405 1
      vertex 10.1444 10.5722 2
      vertex 10.5393 10.9405 2
    endloop
  endfacet
  facet normal -0.682048 0.731308 0
    outer loop
      vertex 10.1444 10.5722 2
      vertex 10.5393 10.9405 1
      vertex 10.1444 10.5722 1
    endloop
  endfacet
  facet normal -0.563508 0.826111 0
    outer loop
      vertex 10.1444 10.5722 1
      vertex 9.69404 10.265 2
      vertex 10.1444 10.5722 2
    endloop
  endfacet
  facet normal -0.563508 0.826111 0
    outer loop
      vertex 9.69404 10.265 2
      vertex 10.1444 10.5722 1
      vertex 9.69404 10.265 1
    endloop
  endfacet
  facet normal -0.437821 0.899062 0
    outer loop
      vertex 9.69404 10.265 1
      vertex 9.19689 10.0229 2
      vertex 9.69404 10.265 2
    endloop
  endfacet
  facet normal -0.437821 0.899062 0
    outer loop
      vertex 9.19689 10.0229 2
      vertex 9.69404 10.265 1
      vertex 9.19689 10.0229 1
    endloop
  endfacet
  facet normal -0.307372 0.951589 0
    outer loop
      vertex 9.19689 10.0229 1
      vertex 8.66158 9.84999 2
      vertex 9.19689 10.0229 2
    endloop
  endfacet
  facet normal -0.307372 0.951589 0
    outer loop
      vertex 8.66158 9.84999 2
      vertex 9.19689 10.0229 1
      vertex 8.66158 9.84999 1
    endloop
  endfacet
  facet normal -0.178038 0.984024 0
    outer loop
      vertex 8.66158 9.84999 1
      vertex 8.08815 9.74624 2
      vertex 8.66158 9.84999 2
    endloop
  endfacet
  facet normal -0.178038 0.984024 0
    outer loop
      vertex 8.08815 9.74624 2
      vertex 8.66158 9.84999 1
      vertex 8.08815 9.74624 1
    endloop
  endfacet
  facet normal -0.056451 0.998405 0
    outer loop
      vertex 8.08815 9.74624 1
      vertex 7.47656 9.71166 2
      vertex 8.08815 9.74624 2
    endloop
  endfacet
  facet normal -0.056451 0.998405 0
    outer loop
      vertex 7.47656 9.71166 2
      vertex 8.08815 9.74624 1
      vertex 7.47656 9.71166 1
    endloop
  endfacet
  facet normal 0 1 -0
    outer loop
      vertex 7.47656 9.71166 1
      vertex 4.92139 9.71166 2
      vertex 7.47656 9.71166 2
    endloop
  endfacet
  facet normal 0 1 0
    outer loop
      vertex 4.92139 9.71166 2
      vertex 7.47656 9.71166 1
      vertex 4.92139 9.71166 1
    endloop
  endfacet
  facet normal 0 1 -0
    outer loop
      vertex 16.3337 17.2714 1
      vertex 14.8688 17.2714 2
      vertex 16.3337 17.2714 2
    endloop
  endfacet
  facet normal 0 1 0
    outer loop
      vertex 14.8688 17.2714 2
      vertex 16.3337 17.2714 1
      vertex 14.8688 17.2714 1
    endloop
  endfacet
  facet normal -1 0 0
    outer loop
      vertex 14.8688 8.46667 1
      vertex 14.8688 17.2714 2
      vertex 14.8688 17.2714 1
    endloop
  endfacet
  facet normal -1 -0 0
    outer loop
      vertex 14.8688 17.2714 2
      vertex 14.8688 8.46667 1
      vertex 14.8688 8.46667 2
    endloop
  endfacet
  facet normal 0 -1 0
    outer loop
      vertex 14.8688 8.46667 1
      vertex 16.3337 8.46667 2
      vertex 14.8688 8.46667 2
    endloop
  endfacet
  facet normal 0 -1 -0
    outer loop
      vertex 16.3337 8.46667 2
      vertex 14.8688 8.46667 1
      vertex 16.3337 8.46667 1
    endloop
  endfacet
  facet normal 1 -0 0
    outer loop
      vertex 16.3337 8.46667 2
      vertex 16.3337 17.2714 1
      vertex 16.3337 17.2714 2
    endloop
  endfacet
  facet normal 1 0 0
    outer loop
      vertex 16.3337 17.2714 1
      vertex 16.3337 8.46667 2
      vertex 16.3337 8.46667 1
    endloop
  endfacet
  facet normal -0.999298 -0.0374737 0
    outer loop
      vertex 25.4 -200 0
      vertex 17.9 0 1
      vertex 17.9 0 0
    endloop
  endfacet
  facet normal -0.999298 -0.0374737 0
    outer loop
      vertex 17.9 0 1
      vertex 25.4 -200 0
      vertex 25.4 -200 1
    endloop
  endfacet
  facet normal 0.999298 -0.0374737 0
    outer loop
      vertex 25.4 -200 1
      vertex 32.9 0 0
      vertex 32.9 0 1
    endloop
  endfacet
  facet normal 0.999298 -0.0374737 0
    outer loop
      vertex 32.9 0 0
      vertex 25.4 -200 1
      vertex 25.4 -200 0
    endloop
  endfacet
endsolid OpenSCAD_Model
